<svg xmlns="http://www.w3.org/2000/svg" version="1.1" xmlns:xlink="http://www.w3.org/1999/xlink" width="1000" height="1000"><g clip-path="url(#SvgjsClipPath1075)"><rect width="1000" height="1000" fill="#ffffff"></rect><g transform="matrix(15.625,0,0,15.625,0,0)"><svg xmlns="http://www.w3.org/2000/svg" version="1.1" xmlns:xlink="http://www.w3.org/1999/xlink" width="64" height="64"><svg width="64" height="64" viewBox="0 0 64 64" xmlns="http://www.w3.org/2000/svg">
  <!-- Фон -->
  <rect width="64" height="64" fill="#F9EAE1"></rect>
  <!-- Иконка -->
  <path fill="#7D4F50" d="M32 2C18 2 6 14 6 28s12 26 26 26 26-12 26-26S46 2 32 2zm0 4c11 0 20 9 20 20s-9 20-20 20S12 37 12 26 21 6 32 6zm0 44c-9 0-16 3-16 7v3h32v-3c0-4-7-7-16-7z"></path>
</svg></svg></g></g><defs><clipPath id="SvgjsClipPath1075"><rect width="1000" height="1000" x="0" y="0" rx="500" ry="500"></rect></clipPath></defs></svg>